<svg width="263" height="168" viewBox="0 0 263 168" fill="none" xmlns="http://www.w3.org/2000/svg">
<g filter="url(#filter0_d_8_7)">
<path d="M57.656 113.424C43.4053 114.107 33.1653 110.565 26.936 102.8C19.4267 108.603 13.9227 111.504 10.424 111.504C8.54667 111.504 7.13867 110.565 6.2 108.688C5.34667 106.896 4.92 104.933 4.92 102.8C4.92 98.704 6.49867 92.816 9.656 85.136C13.4107 76.432 16.8667 72.08 20.024 72.08C21.6453 72.08 22.8827 74.64 23.736 79.76C25.1867 87.44 26.5093 92.7307 27.704 95.632C30.52 92.6453 34.0187 88.592 38.2 83.472C42.4667 78.352 47.3733 72.1653 52.92 64.912C66.744 46.736 75.9173 36.7947 80.44 35.088C81.976 34.4907 83.512 34.192 85.048 34.192C86.7547 34.192 88.12 34.576 89.144 35.344C90.2533 36.0267 90.808 36.8373 90.808 37.776C90.808 39.2267 89.5707 40.08 87.096 40.336C85.304 41.2747 83.0853 42.896 80.44 45.2C77.88 47.504 75.1493 50.1493 72.248 53.136C69.432 56.0373 66.7867 58.9387 64.312 61.84C61.8373 64.656 59.832 67.088 58.296 69.136C49.1653 81.8507 40.0347 92.0053 30.904 99.6L30.136 100.24C32.8667 104.251 36.152 107.024 39.992 108.56C43.832 110.096 48.0987 110.864 52.792 110.864C60.5573 110.864 67.9387 109.669 74.936 107.28C82.0187 104.976 88.376 101.52 94.008 96.912C99.7253 92.2187 104.419 86.5013 108.088 79.76C112.099 72.4213 114.104 65.424 114.104 58.768C114.104 54.2453 113.123 49.9787 111.16 45.968C109.197 41.872 106.552 38.3733 103.224 35.472C99.9813 32.5707 96.3547 30.6933 92.344 29.84C87.6507 28.816 82.744 28.304 77.624 28.304C64.4827 28.304 52.3653 31.3333 41.272 37.392C29.5813 43.792 23.736 50.96 23.736 58.896C23.736 61.0293 24.376 62.864 25.656 64.4C26.68 65.5947 27.4053 66.2773 27.832 66.448H27.064C24.6747 66.0213 22.6267 64.8267 20.92 62.864C19.2133 60.9013 18.36 58.7253 18.36 56.336C18.36 51.8987 19.7253 47.8453 22.456 44.176C25.272 40.4213 29.3253 37.008 34.616 33.936C45.1973 27.8773 57.6987 24.848 72.12 24.848C75.3627 24.848 78.6053 25.0187 81.848 25.36C85.0907 25.7013 88.2907 26.2133 91.448 26.896C96.9947 28.0907 102.029 30.352 106.552 33.68C111.075 37.008 114.701 41.0613 117.432 45.84C120.163 50.6187 121.528 55.7813 121.528 61.328C121.528 67.728 119.651 74.3413 115.896 81.168C112.141 88.08 107.277 93.8827 101.304 98.576C95.416 103.184 88.76 106.683 81.336 109.072C73.912 111.547 66.0187 112.997 57.656 113.424ZM11.064 109.2C14.7333 107.579 19.1707 104.208 24.376 99.088C21.9013 94.992 20.28 91.536 19.512 88.72C19 86.8427 18.616 83.984 18.36 80.144C12.472 88.592 9.528 95.9733 9.528 102.288C9.528 104.933 10.04 107.237 11.064 109.2ZM142.507 118.928C135.766 118.928 131.072 117.136 128.427 113.552C125.782 109.968 124.459 104.677 124.459 97.68C124.459 88.2933 127.19 79.0773 132.651 70.032C126.336 66.0213 123.179 60.0907 123.179 52.24C123.179 42.768 127.36 34.3627 135.723 27.024C145.11 18.7467 157.227 14.608 172.075 14.608C176.768 14.608 180.907 14.9067 184.491 15.504C188.075 16.016 191.488 16.8267 194.731 17.936C198.059 19.0453 201.6 20.4533 205.355 22.16C209.11 23.8667 213.547 25.9147 218.667 28.304C231.126 33.936 240.256 36.752 246.059 36.752C248.875 36.752 251.307 36.112 253.355 34.832C255.403 33.4667 256.427 31.8027 256.427 29.84C256.427 28.56 255.872 27.408 254.763 26.384C254.166 25.5307 253.867 24.9333 253.867 24.592C253.867 24.4213 253.952 24.336 254.123 24.336C254.806 24.336 255.744 25.0613 256.939 26.512C258.134 27.9627 258.731 29.5413 258.731 31.248C258.731 33.1253 258.006 34.7467 256.555 36.112C255.19 37.4773 253.398 38.544 251.179 39.312C249.046 39.9947 246.827 40.336 244.523 40.336C238.123 40.336 228.694 37.4773 216.235 31.76C211.627 29.6267 207.659 27.8347 204.331 26.384C201.003 24.848 197.931 23.6107 195.115 22.672C192.299 21.648 189.483 20.9227 186.667 20.496C183.936 19.984 180.864 19.728 177.451 19.728C159.787 19.728 145.878 25.4453 135.723 36.88C134.614 38.0747 133.547 39.824 132.523 42.128C131.499 44.3467 130.646 46.6933 129.963 49.168C129.366 51.6427 129.067 53.8613 129.067 55.824C129.067 60.7733 130.816 64.6133 134.315 67.344C137.046 63.3333 140.203 59.7493 143.787 56.592C147.456 53.3493 151.382 50.7893 155.563 48.912C159.744 47.0347 164.054 46.096 168.491 46.096C176.171 46.096 180.011 49.0827 180.011 55.056C180.011 62.224 175.787 70.032 167.339 78.48C158.976 86.8427 151.211 91.024 144.043 91.024C139.435 91.024 137.131 89.0613 137.131 85.136C137.131 83.7707 137.472 82.576 138.155 81.552C138.923 80.528 139.819 80.144 140.843 80.4C140.843 80.8267 140.8 81.3813 140.715 82.064C140.63 82.6613 140.587 83.088 140.587 83.344C140.587 84.624 142.55 85.264 146.475 85.264C152.278 85.264 158.507 82.192 165.163 76.048C168.406 72.976 171.179 69.5627 173.483 65.808C175.872 62.0533 177.067 58.5547 177.067 55.312C177.067 51.472 174.592 49.552 169.643 49.552C166.059 49.552 162.432 50.5333 158.763 52.496C155.179 54.4587 151.766 57.0187 148.523 60.176C145.28 63.248 142.336 66.5333 139.691 70.032C140.118 70.2027 140.672 70.3733 141.355 70.544C142.038 70.7147 142.806 70.8853 143.659 71.056L151.339 71.312C155.094 71.4827 156.971 71.9093 156.971 72.592C156.971 73.7867 155.264 74.384 151.851 74.384C150.315 74.384 148.822 74.3413 147.371 74.256C146.006 74.1707 144.683 74.0427 143.403 73.872C142.464 73.7013 141.526 73.5307 140.587 73.36C139.734 73.104 138.88 72.8053 138.027 72.464C131.456 82.5333 128.171 91.792 128.171 100.24C128.171 111.163 132.395 116.624 140.843 116.624C150.4 116.624 160.342 109.968 170.667 96.656L195.755 59.28C204.886 45.712 213.035 38.7147 220.203 38.288L225.067 39.44C226.603 40.208 227.371 41.744 227.371 44.048C227.371 45.2427 226.944 45.84 226.091 45.84C225.835 45.84 225.195 45.7547 224.171 45.584C223.232 45.328 222.507 45.2 221.995 45.2C215.936 45.2 208.384 51.5573 199.339 64.272L173.867 99.856C162.944 112.571 152.491 118.928 142.507 118.928Z" fill="black"/>
</g>
<path d="M4.28 158.97C4.89333 158.85 5.30667 158.677 5.52 158.45C5.73333 158.21 5.84 157.81 5.84 157.25L5.86 148.85C5.86 148.423 5.80667 148.137 5.7 147.99C5.60667 147.843 5.41333 147.77 5.12 147.77C4.98667 147.77 4.85333 147.777 4.72 147.79C4.58667 147.803 4.49333 147.81 4.44 147.81L4.4 147.73L4.54 146.85C4.71333 146.863 5.06 146.877 5.58 146.89C6.11333 146.903 6.69333 146.91 7.32 146.91C9.94667 146.91 11.82 146.83 12.94 146.67L13 146.79C12.9867 146.87 12.9467 147.057 12.88 147.35C12.8267 147.643 12.7667 148.05 12.7 148.57C12.6333 149.09 12.58 149.623 12.54 150.17L11.58 150.25C11.58 150.183 11.5867 150.057 11.6 149.87C11.6133 149.683 11.62 149.503 11.62 149.33C11.62 148.863 11.56 148.543 11.44 148.37C11.3333 148.183 11.1067 148.063 10.76 148.01C10.4133 147.943 9.80667 147.91 8.94 147.91C8.47333 147.91 8.15333 147.923 7.98 147.95C7.80667 147.977 7.69333 148.043 7.64 148.15C7.58667 148.243 7.55333 148.423 7.54 148.69L7.38 152.91L9.44 152.93C9.69333 152.93 10.0667 152.903 10.56 152.85C11.0533 152.783 11.38 152.737 11.54 152.71L11.62 152.81L11.34 154.01C11.1667 153.997 10.84 153.983 10.36 153.97C9.89333 153.957 9.4 153.95 8.88 153.95C8.38667 153.95 7.87333 153.997 7.34 154.09L7.26 157.41C7.26 157.957 7.32 158.323 7.44 158.51C7.56 158.683 7.79333 158.77 8.14 158.77C8.40667 158.77 8.68 158.763 8.96 158.75C9.25333 158.723 9.45333 158.71 9.56 158.71L9.6 158.79L9.42 159.73C9.20667 159.717 8.80667 159.697 8.22 159.67C7.64667 159.657 7.05333 159.65 6.44 159.65C6.02667 159.65 5.58 159.683 5.1 159.75C4.62 159.817 4.30667 159.863 4.16 159.89L4.28 158.97ZM21.8544 159.89C21.561 159.89 21.261 159.763 20.9544 159.51C20.6477 159.243 20.3677 158.883 20.1144 158.43L18.4344 155.49H17.1344L17.0944 157.63C17.0944 158.017 17.121 158.297 17.1744 158.47C17.2277 158.63 17.3277 158.737 17.4744 158.79C17.6344 158.843 17.901 158.877 18.2744 158.89L18.3144 158.95L18.1544 159.71C17.9944 159.697 17.701 159.683 17.2744 159.67C16.861 159.67 16.441 159.67 16.0144 159.67C15.601 159.67 15.241 159.677 14.9344 159.69C14.6277 159.703 14.421 159.717 14.3144 159.73L14.4544 158.91C14.9477 158.843 15.2744 158.73 15.4344 158.57C15.5944 158.41 15.6744 158.11 15.6744 157.67L15.6944 151.29C15.6944 150.97 15.6544 150.757 15.5744 150.65C15.4944 150.53 15.341 150.47 15.1144 150.47L14.5544 150.49L14.4944 150.41L14.6144 149.65C14.7477 149.65 15.001 149.657 15.3744 149.67C15.7477 149.683 16.121 149.69 16.4944 149.69C16.881 149.69 17.2944 149.683 17.7344 149.67C18.1744 149.643 18.4744 149.63 18.6344 149.63C19.7144 149.63 20.561 149.857 21.1744 150.31C21.7877 150.75 22.0944 151.363 22.0944 152.15C22.0944 152.763 21.8877 153.33 21.4744 153.85C21.061 154.37 20.481 154.797 19.7344 155.13L21.4344 157.69C21.7544 158.17 22.061 158.51 22.3544 158.71C22.6477 158.91 23.001 159.01 23.4144 159.01L23.4944 159.11L23.3944 159.73L21.8544 159.89ZM18.7944 154.61C19.0477 154.503 19.2677 154.403 19.4544 154.31C19.6544 154.203 19.8744 153.99 20.1144 153.67C20.3544 153.35 20.4744 152.937 20.4744 152.43C20.4744 151.137 19.521 150.49 17.6144 150.49C17.5077 150.49 17.4344 150.517 17.3944 150.57C17.3544 150.61 17.3344 150.703 17.3344 150.85C17.2277 152.477 17.1744 153.677 17.1744 154.45L18.7944 154.61ZM25.0003 158.97C25.4936 158.917 25.827 158.797 26.0003 158.61C26.1736 158.423 26.2603 158.103 26.2603 157.65L26.2803 151.31C26.2803 150.977 26.2403 150.757 26.1603 150.65C26.0803 150.53 25.9203 150.47 25.6803 150.47L25.1403 150.49L25.1003 150.41L25.2203 149.65C25.3803 149.65 25.6936 149.657 26.1603 149.67C26.627 149.683 27.1336 149.69 27.6803 149.69C29.907 149.69 31.5536 149.63 32.6203 149.51L32.6803 149.61C32.6536 149.757 32.5936 150.09 32.5003 150.61C32.407 151.13 32.3403 151.69 32.3003 152.29L31.3403 152.37C31.3403 152.317 31.347 152.23 31.3603 152.11C31.3736 151.977 31.3803 151.843 31.3803 151.71C31.3803 151.363 31.327 151.123 31.2203 150.99C31.127 150.843 30.9203 150.75 30.6003 150.71C30.2936 150.657 29.7536 150.63 28.9803 150.63C28.6203 150.63 28.3736 150.643 28.2403 150.67C28.107 150.683 28.0203 150.73 27.9803 150.81C27.9403 150.877 27.9136 151.01 27.9003 151.21L27.7803 154.05L29.4203 154.07C29.6603 154.07 30.0136 154.05 30.4803 154.01C30.947 153.957 31.2536 153.923 31.4003 153.91L31.4803 154.01L31.2403 155.05C31.0936 155.05 30.8003 155.043 30.3603 155.03C29.9336 155.017 29.4803 155.01 29.0003 155.01C28.627 155.01 28.207 155.043 27.7403 155.11C27.7003 156.123 27.6803 157.037 27.6803 157.85C27.6803 158.157 27.7003 158.37 27.7403 158.49C27.7936 158.61 27.9003 158.69 28.0603 158.73C28.2336 158.77 28.5136 158.79 28.9003 158.79C29.767 158.79 30.387 158.75 30.7603 158.67C31.1336 158.59 31.3936 158.43 31.5403 158.19C31.7003 157.937 31.827 157.51 31.9203 156.91L32.8003 156.83L32.8803 156.93C32.8403 157.077 32.767 157.423 32.6603 157.97C32.567 158.503 32.4936 159.063 32.4403 159.65L32.3203 159.75C31.9603 159.737 31.2136 159.717 30.0803 159.69C28.947 159.663 28.027 159.65 27.3203 159.65C26.7736 159.65 26.267 159.67 25.8003 159.71C25.3336 159.763 25.0336 159.797 24.9003 159.81L25.0003 158.97ZM35.1566 158.97C35.6499 158.917 35.9832 158.797 36.1566 158.61C36.3299 158.423 36.4166 158.103 36.4166 157.65L36.4366 151.31C36.4366 150.977 36.3966 150.757 36.3166 150.65C36.2366 150.53 36.0766 150.47 35.8366 150.47L35.2966 150.49L35.2566 150.41L35.3766 149.65C35.5366 149.65 35.8499 149.657 36.3166 149.67C36.7832 149.683 37.2899 149.69 37.8366 149.69C40.0632 149.69 41.7099 149.63 42.7766 149.51L42.8366 149.61C42.8099 149.757 42.7499 150.09 42.6566 150.61C42.5632 151.13 42.4966 151.69 42.4566 152.29L41.4966 152.37C41.4966 152.317 41.5032 152.23 41.5166 152.11C41.5299 151.977 41.5366 151.843 41.5366 151.71C41.5366 151.363 41.4832 151.123 41.3766 150.99C41.2832 150.843 41.0766 150.75 40.7566 150.71C40.4499 150.657 39.9099 150.63 39.1366 150.63C38.7766 150.63 38.5299 150.643 38.3966 150.67C38.2632 150.683 38.1766 150.73 38.1366 150.81C38.0966 150.877 38.0699 151.01 38.0566 151.21L37.9366 154.05L39.5766 154.07C39.8166 154.07 40.1699 154.05 40.6366 154.01C41.1032 153.957 41.4099 153.923 41.5566 153.91L41.6366 154.01L41.3966 155.05C41.2499 155.05 40.9566 155.043 40.5166 155.03C40.0899 155.017 39.6366 155.01 39.1566 155.01C38.7832 155.01 38.3632 155.043 37.8966 155.11C37.8566 156.123 37.8366 157.037 37.8366 157.85C37.8366 158.157 37.8566 158.37 37.8966 158.49C37.9499 158.61 38.0566 158.69 38.2166 158.73C38.3899 158.77 38.6699 158.79 39.0566 158.79C39.9232 158.79 40.5432 158.75 40.9166 158.67C41.2899 158.59 41.5499 158.43 41.6966 158.19C41.8566 157.937 41.9832 157.51 42.0766 156.91L42.9566 156.83L43.0366 156.93C42.9966 157.077 42.9232 157.423 42.8166 157.97C42.7232 158.503 42.6499 159.063 42.5966 159.65L42.4766 159.75C42.1166 159.737 41.3699 159.717 40.2366 159.69C39.1032 159.663 38.1832 159.65 37.4766 159.65C36.9299 159.65 36.4232 159.67 35.9566 159.71C35.4899 159.763 35.1899 159.797 35.0566 159.81L35.1566 158.97ZM45.4728 158.97C45.8995 158.903 46.1861 158.783 46.3328 158.61C46.4928 158.423 46.5728 158.103 46.5728 157.65L46.5928 151.31C46.5928 150.977 46.5528 150.757 46.4728 150.65C46.3928 150.53 46.2328 150.47 45.9928 150.47L45.4528 150.49L45.3928 150.41L45.5128 149.65C45.5795 149.65 45.7795 149.657 46.1128 149.67C46.4461 149.683 46.8928 149.69 47.4528 149.69C47.7461 149.69 48.1061 149.67 48.5328 149.63C48.9728 149.59 49.2595 149.563 49.3928 149.55L49.3128 150.39C48.9528 150.43 48.6995 150.497 48.5528 150.59C48.4061 150.67 48.3195 150.777 48.2928 150.91C48.2661 151.043 48.2328 151.317 48.1928 151.73C48.0595 153.517 47.9928 155.497 47.9928 157.67C47.9928 158.003 48.0195 158.25 48.0728 158.41C48.1395 158.557 48.2595 158.657 48.4328 158.71C48.6195 158.763 48.9061 158.79 49.2928 158.79C49.9328 158.79 50.3995 158.737 50.6928 158.63C50.9995 158.523 51.2261 158.317 51.3728 158.01C51.5328 157.69 51.6728 157.19 51.7928 156.51L52.6728 156.41L52.7328 156.53C52.7061 156.703 52.6395 157.103 52.5328 157.73C52.4395 158.343 52.3528 158.99 52.2728 159.67L52.1728 159.79C51.8661 159.777 51.2128 159.75 50.2128 159.71C49.2261 159.67 48.3928 159.65 47.7128 159.65C47.1795 159.65 46.6795 159.67 46.2128 159.71C45.7595 159.763 45.4728 159.797 45.3528 159.81L45.4728 158.97ZM59.1083 159.69L59.1683 158.97C59.7283 158.93 60.1016 158.87 60.2883 158.79C60.4883 158.71 60.5883 158.577 60.5883 158.39C60.5883 158.177 60.5416 157.95 60.4483 157.71L59.9683 156.17C59.7016 156.157 59.1483 156.15 58.3083 156.15C57.9216 156.15 57.3483 156.19 56.5883 156.27L56.0283 157.75C55.9349 158.057 55.8883 158.243 55.8883 158.31C55.8883 158.523 55.9616 158.677 56.1083 158.77C56.2549 158.863 56.4949 158.91 56.8283 158.91H57.6883L57.7483 158.99L57.6283 159.75C57.4949 159.737 57.1883 159.717 56.7083 159.69C56.2416 159.663 55.7816 159.65 55.3283 159.65C54.9016 159.65 54.5149 159.657 54.1683 159.67C53.8349 159.683 53.6083 159.69 53.4883 159.69L53.6083 158.87C53.9016 158.83 54.1349 158.73 54.3083 158.57C54.4816 158.397 54.6549 158.11 54.8283 157.71L57.9683 149.77L59.3883 149.51L59.5283 149.53C59.5283 149.583 59.8283 150.637 60.4283 152.69C61.0416 154.743 61.5883 156.443 62.0683 157.79C62.2016 158.177 62.3683 158.45 62.5683 158.61C62.7816 158.757 63.1149 158.85 63.5683 158.89L63.6083 158.97L63.5083 159.69C63.3749 159.69 63.1283 159.683 62.7683 159.67C62.4083 159.657 62.0483 159.65 61.6883 159.65C61.1416 159.65 60.6216 159.67 60.1283 159.71C59.6349 159.75 59.3149 159.777 59.1683 159.79L59.1083 159.69ZM58.2683 155.33C58.7349 155.33 59.2216 155.303 59.7283 155.25L58.5083 151.37H58.3683L56.9083 155.33H58.2683ZM72.9036 151.15C72.9036 150.71 72.7236 150.49 72.3636 150.49H71.7636L71.7236 150.41L71.8636 149.63C71.9836 149.643 72.2103 149.657 72.5436 149.67C72.8769 149.683 73.2169 149.69 73.5636 149.69C73.8569 149.69 74.1836 149.677 74.5436 149.65C74.9169 149.61 75.1569 149.583 75.2636 149.57L75.1836 150.39C74.7969 150.443 74.5169 150.55 74.3436 150.71C74.1836 150.857 74.0969 151.083 74.0836 151.39L73.8436 159.99L73.0636 160.21C71.7969 158.357 70.5169 156.543 69.2236 154.77C67.9303 152.997 67.2836 152.123 67.2836 152.15H67.1836L67.1236 158.21C67.1236 158.463 67.1636 158.637 67.2436 158.73C67.3236 158.823 67.4569 158.87 67.6436 158.87L68.4436 158.85L68.5036 158.91L68.3436 159.71C68.2236 159.697 67.9836 159.683 67.6236 159.67C67.2769 159.657 66.9103 159.65 66.5236 159.65C66.2169 159.65 65.8903 159.663 65.5436 159.69C65.1969 159.73 64.9703 159.757 64.8636 159.77L64.9636 158.95C65.2969 158.91 65.5436 158.817 65.7036 158.67C65.8636 158.51 65.9503 158.277 65.9636 157.97L66.1836 151.37C66.1836 151.037 66.0836 150.81 65.8836 150.69C65.6969 150.557 65.3303 150.457 64.7836 150.39L64.7036 150.29L64.8436 149.61C64.9503 149.623 65.1503 149.643 65.4436 149.67C65.7503 149.683 66.0569 149.69 66.3636 149.69C66.6569 149.69 66.9169 149.683 67.1436 149.67C67.3703 149.657 67.5169 149.643 67.5836 149.63C68.6636 151.217 69.8036 152.837 71.0036 154.49C72.2169 156.143 72.8236 156.957 72.8236 156.93H72.9236L72.9036 151.15ZM81.6888 159.83C80.1821 159.83 78.9888 159.397 78.1088 158.53C77.2288 157.663 76.7888 156.483 76.7888 154.99C76.7888 153.937 77.0288 152.997 77.5088 152.17C78.0021 151.33 78.6821 150.677 79.5488 150.21C80.4288 149.743 81.4221 149.51 82.5288 149.51C82.9288 149.51 83.3421 149.537 83.7688 149.59C84.2088 149.643 84.5754 149.703 84.8688 149.77C85.1754 149.837 85.3688 149.877 85.4488 149.89L85.5288 150.01C85.5154 150.077 85.4821 150.237 85.4288 150.49C85.3754 150.73 85.3154 151.05 85.2488 151.45C85.1821 151.85 85.1354 152.277 85.1088 152.73L84.1088 152.79C84.1088 152.75 84.1154 152.657 84.1288 152.51C84.1421 152.363 84.1488 152.197 84.1488 152.01C84.1488 151.077 83.4021 150.61 81.9088 150.61C80.8688 150.61 80.0488 150.957 79.4488 151.65C78.8488 152.33 78.5488 153.27 78.5488 154.47C78.5488 155.803 78.8621 156.863 79.4888 157.65C80.1288 158.437 80.9821 158.83 82.0488 158.83C82.7554 158.83 83.3154 158.643 83.7288 158.27C84.1554 157.883 84.4621 157.283 84.6488 156.47L85.6488 156.39C85.6088 156.55 85.5354 156.91 85.4288 157.47C85.3354 158.03 85.2688 158.557 85.2288 159.05L85.1088 159.21C85.0288 159.237 84.8354 159.303 84.5288 159.41C84.2354 159.503 83.8354 159.597 83.3288 159.69C82.8221 159.783 82.2754 159.83 81.6888 159.83ZM87.8128 158.97C88.3061 158.917 88.6395 158.797 88.8128 158.61C88.9861 158.423 89.0728 158.103 89.0728 157.65L89.0928 151.31C89.0928 150.977 89.0528 150.757 88.9728 150.65C88.8928 150.53 88.7328 150.47 88.4928 150.47L87.9528 150.49L87.9128 150.41L88.0328 149.65C88.1928 149.65 88.5061 149.657 88.9728 149.67C89.4395 149.683 89.9461 149.69 90.4928 149.69C92.7195 149.69 94.3661 149.63 95.4328 149.51L95.4928 149.61C95.4661 149.757 95.4061 150.09 95.3128 150.61C95.2195 151.13 95.1528 151.69 95.1128 152.29L94.1528 152.37C94.1528 152.317 94.1595 152.23 94.1728 152.11C94.1861 151.977 94.1928 151.843 94.1928 151.71C94.1928 151.363 94.1395 151.123 94.0328 150.99C93.9395 150.843 93.7328 150.75 93.4128 150.71C93.1061 150.657 92.5661 150.63 91.7928 150.63C91.4328 150.63 91.1861 150.643 91.0528 150.67C90.9195 150.683 90.8328 150.73 90.7928 150.81C90.7528 150.877 90.7261 151.01 90.7128 151.21L90.5928 154.05L92.2328 154.07C92.4728 154.07 92.8261 154.05 93.2928 154.01C93.7595 153.957 94.0661 153.923 94.2128 153.91L94.2928 154.01L94.0528 155.05C93.9061 155.05 93.6128 155.043 93.1728 155.03C92.7461 155.017 92.2928 155.01 91.8128 155.01C91.4395 155.01 91.0195 155.043 90.5528 155.11C90.5128 156.123 90.4928 157.037 90.4928 157.85C90.4928 158.157 90.5128 158.37 90.5528 158.49C90.6061 158.61 90.7128 158.69 90.8728 158.73C91.0461 158.77 91.3261 158.79 91.7128 158.79C92.5795 158.79 93.1995 158.75 93.5728 158.67C93.9461 158.59 94.2061 158.43 94.3528 158.19C94.5128 157.937 94.6395 157.51 94.7328 156.91L95.6128 156.83L95.6928 156.93C95.6528 157.077 95.5795 157.423 95.4728 157.97C95.3795 158.503 95.3061 159.063 95.2528 159.65L95.1328 159.75C94.7728 159.737 94.0261 159.717 92.8928 159.69C91.7595 159.663 90.8395 159.65 90.1328 159.65C89.5861 159.65 89.0795 159.67 88.6128 159.71C88.1461 159.763 87.8461 159.797 87.7128 159.81L87.8128 158.97ZM105.774 159.99C105.587 159.323 105.154 157.857 104.474 155.59C103.807 153.323 103.127 151.103 102.434 148.93C102.314 148.543 102.107 148.263 101.814 148.09C101.521 147.903 101.127 147.803 100.634 147.79L100.614 147.71L100.734 146.85C100.907 146.85 101.221 146.863 101.674 146.89C102.127 146.903 102.567 146.91 102.994 146.91C103.581 146.91 104.167 146.883 104.754 146.83C105.341 146.763 105.721 146.717 105.894 146.69L105.954 146.83L105.874 147.61C105.194 147.663 104.734 147.743 104.494 147.85C104.267 147.957 104.154 148.15 104.154 148.43C104.154 148.657 104.334 149.463 104.694 150.85C105.067 152.223 105.447 153.603 105.834 154.99C106.234 156.377 106.494 157.283 106.614 157.71H106.734L109.554 150.03L109.194 148.93C109.061 148.543 108.854 148.263 108.574 148.09C108.294 147.917 107.901 147.817 107.394 147.79L107.354 147.71L107.494 146.85C107.667 146.85 107.981 146.863 108.434 146.89C108.887 146.903 109.327 146.91 109.754 146.91C110.261 146.91 110.821 146.883 111.434 146.83C112.061 146.763 112.467 146.717 112.654 146.69L112.714 146.83L112.634 147.61C111.941 147.663 111.474 147.743 111.234 147.85C111.007 147.957 110.894 148.157 110.894 148.45C110.894 148.73 111.241 150.117 111.934 152.61C112.627 155.103 113.107 156.803 113.374 157.71H113.494C113.521 157.63 113.547 157.55 113.574 157.47C113.614 157.377 113.654 157.27 113.694 157.15C115.721 151.71 116.734 148.797 116.734 148.41C116.734 148.157 116.627 147.977 116.414 147.87C116.201 147.763 115.854 147.71 115.374 147.71H114.374L114.334 147.63L114.474 146.77C114.647 146.783 115.021 146.81 115.594 146.85C116.167 146.89 116.721 146.91 117.254 146.91C117.734 146.91 118.174 146.903 118.574 146.89C118.974 146.877 119.241 146.863 119.374 146.85L119.234 147.79C118.834 147.817 118.554 147.89 118.394 148.01C118.234 148.117 118.087 148.363 117.954 148.75L113.754 159.55L112.514 159.99C112.381 159.523 112.067 158.45 111.574 156.77C111.094 155.09 110.574 153.337 110.014 151.51H109.894L107.054 159.55L105.774 159.99ZM120.567 158.97C121.06 158.917 121.393 158.797 121.567 158.61C121.74 158.423 121.827 158.103 121.827 157.65L121.847 151.31C121.847 150.977 121.807 150.757 121.727 150.65C121.647 150.53 121.487 150.47 121.247 150.47L120.707 150.49L120.667 150.41L120.787 149.65C120.947 149.65 121.26 149.657 121.727 149.67C122.193 149.683 122.7 149.69 123.247 149.69C125.473 149.69 127.12 149.63 128.187 149.51L128.247 149.61C128.22 149.757 128.16 150.09 128.067 150.61C127.973 151.13 127.907 151.69 127.867 152.29L126.907 152.37C126.907 152.317 126.913 152.23 126.927 152.11C126.94 151.977 126.947 151.843 126.947 151.71C126.947 151.363 126.893 151.123 126.787 150.99C126.693 150.843 126.487 150.75 126.167 150.71C125.86 150.657 125.32 150.63 124.547 150.63C124.187 150.63 123.94 150.643 123.807 150.67C123.673 150.683 123.587 150.73 123.547 150.81C123.507 150.877 123.48 151.01 123.467 151.21L123.347 154.05L124.987 154.07C125.227 154.07 125.58 154.05 126.047 154.01C126.513 153.957 126.82 153.923 126.967 153.91L127.047 154.01L126.807 155.05C126.66 155.05 126.367 155.043 125.927 155.03C125.5 155.017 125.047 155.01 124.567 155.01C124.193 155.01 123.773 155.043 123.307 155.11C123.267 156.123 123.247 157.037 123.247 157.85C123.247 158.157 123.267 158.37 123.307 158.49C123.36 158.61 123.467 158.69 123.627 158.73C123.8 158.77 124.08 158.79 124.467 158.79C125.333 158.79 125.953 158.75 126.327 158.67C126.7 158.59 126.96 158.43 127.107 158.19C127.267 157.937 127.393 157.51 127.487 156.91L128.367 156.83L128.447 156.93C128.407 157.077 128.333 157.423 128.227 157.97C128.133 158.503 128.06 159.063 128.007 159.65L127.887 159.75C127.527 159.737 126.78 159.717 125.647 159.69C124.513 159.663 123.593 159.65 122.887 159.65C122.34 159.65 121.833 159.67 121.367 159.71C120.9 159.763 120.6 159.797 120.467 159.81L120.567 158.97ZM132.623 159.65C132.276 159.65 131.89 159.67 131.463 159.71C131.036 159.763 130.756 159.803 130.623 159.83L130.723 159.01C131.216 158.917 131.55 158.783 131.723 158.61C131.896 158.423 131.983 158.117 131.983 157.69L132.003 151.29C132.003 150.97 131.963 150.757 131.883 150.65C131.803 150.53 131.65 150.47 131.423 150.47L130.863 150.49L130.803 150.41L130.923 149.65C131.07 149.65 131.336 149.657 131.723 149.67C132.11 149.683 132.49 149.69 132.863 149.69C133.25 149.69 133.65 149.683 134.063 149.67C134.49 149.643 134.783 149.623 134.943 149.61C135.996 149.61 136.81 149.817 137.383 150.23C137.956 150.643 138.243 151.237 138.243 152.01C138.243 152.543 138.07 153.023 137.723 153.45C137.39 153.877 136.943 154.197 136.383 154.41C137.116 154.557 137.71 154.837 138.163 155.25C138.63 155.65 138.863 156.15 138.863 156.75C138.863 157.31 138.683 157.823 138.323 158.29C137.976 158.757 137.496 159.13 136.883 159.41C136.283 159.677 135.623 159.81 134.903 159.81C134.69 159.81 134.37 159.783 133.943 159.73C133.356 159.677 132.916 159.65 132.623 159.65ZM133.503 154.09C133.663 154.103 133.923 154.123 134.283 154.15C134.656 154.177 134.97 154.197 135.223 154.21C135.223 154.237 135.356 154.183 135.623 154.05C135.89 153.917 136.13 153.71 136.343 153.43C136.556 153.15 136.663 152.777 136.663 152.31C136.663 151.683 136.436 151.223 135.983 150.93C135.543 150.637 134.856 150.49 133.923 150.49C133.816 150.49 133.743 150.517 133.703 150.57C133.676 150.61 133.656 150.697 133.643 150.83C133.576 151.67 133.53 152.757 133.503 154.09ZM133.403 157.81C133.403 158.183 133.536 158.45 133.803 158.61C134.07 158.757 134.53 158.83 135.183 158.83C135.81 158.83 136.296 158.67 136.643 158.35C137.003 158.03 137.183 157.59 137.183 157.03C137.183 156.51 137.01 156.083 136.663 155.75C136.316 155.417 135.803 155.19 135.123 155.07L133.463 155.09L133.403 157.81ZM150.199 159.89C149.999 159.863 149.573 159.817 148.919 159.75C148.279 159.683 147.746 159.65 147.319 159.65C146.906 159.65 146.453 159.683 145.959 159.75C145.479 159.817 145.166 159.863 145.019 159.89L145.139 158.97C145.753 158.85 146.166 158.677 146.379 158.45C146.593 158.21 146.699 157.81 146.699 157.25L146.719 148.85C146.719 148.423 146.666 148.137 146.559 147.99C146.466 147.843 146.273 147.77 145.979 147.77C145.846 147.77 145.713 147.777 145.579 147.79C145.446 147.803 145.353 147.81 145.299 147.81L145.259 147.73L145.399 146.85C145.546 146.863 145.826 146.877 146.239 146.89C146.653 146.903 147.073 146.91 147.499 146.91C148.073 146.91 148.666 146.903 149.279 146.89C149.893 146.863 150.313 146.843 150.539 146.83C151.819 146.83 152.959 147.083 153.959 147.59C154.959 148.083 155.733 148.783 156.279 149.69C156.839 150.597 157.119 151.637 157.119 152.81C157.119 154.117 156.813 155.31 156.199 156.39C155.586 157.47 154.753 158.323 153.699 158.95C152.646 159.577 151.479 159.89 150.199 159.89ZM149.159 147.81C148.879 147.81 148.693 147.843 148.599 147.91C148.506 147.963 148.453 148.077 148.439 148.25C148.239 153.383 148.139 156.31 148.139 157.03C148.139 157.537 148.206 157.917 148.339 158.17C148.486 158.423 148.733 158.603 149.079 158.71C149.439 158.817 149.966 158.87 150.659 158.87C152.099 158.87 153.233 158.377 154.059 157.39C154.886 156.39 155.299 155.023 155.299 153.29C155.299 151.53 154.766 150.177 153.699 149.23C152.646 148.283 151.133 147.81 149.159 147.81ZM159.102 158.97C159.595 158.917 159.929 158.797 160.102 158.61C160.275 158.423 160.362 158.103 160.362 157.65L160.382 151.31C160.382 150.977 160.342 150.757 160.262 150.65C160.182 150.53 160.022 150.47 159.782 150.47L159.242 150.49L159.202 150.41L159.322 149.65C159.482 149.65 159.795 149.657 160.262 149.67C160.729 149.683 161.235 149.69 161.782 149.69C164.009 149.69 165.655 149.63 166.722 149.51L166.782 149.61C166.755 149.757 166.695 150.09 166.602 150.61C166.509 151.13 166.442 151.69 166.402 152.29L165.442 152.37C165.442 152.317 165.449 152.23 165.462 152.11C165.475 151.977 165.482 151.843 165.482 151.71C165.482 151.363 165.429 151.123 165.322 150.99C165.229 150.843 165.022 150.75 164.702 150.71C164.395 150.657 163.855 150.63 163.082 150.63C162.722 150.63 162.475 150.643 162.342 150.67C162.209 150.683 162.122 150.73 162.082 150.81C162.042 150.877 162.015 151.01 162.002 151.21L161.882 154.05L163.522 154.07C163.762 154.07 164.115 154.05 164.582 154.01C165.049 153.957 165.355 153.923 165.502 153.91L165.582 154.01L165.342 155.05C165.195 155.05 164.902 155.043 164.462 155.03C164.035 155.017 163.582 155.01 163.102 155.01C162.729 155.01 162.309 155.043 161.842 155.11C161.802 156.123 161.782 157.037 161.782 157.85C161.782 158.157 161.802 158.37 161.842 158.49C161.895 158.61 162.002 158.69 162.162 158.73C162.335 158.77 162.615 158.79 163.002 158.79C163.869 158.79 164.489 158.75 164.862 158.67C165.235 158.59 165.495 158.43 165.642 158.19C165.802 157.937 165.929 157.51 166.022 156.91L166.902 156.83L166.982 156.93C166.942 157.077 166.869 157.423 166.762 157.97C166.669 158.503 166.595 159.063 166.542 159.65L166.422 159.75C166.062 159.737 165.315 159.717 164.182 159.69C163.049 159.663 162.129 159.65 161.422 159.65C160.875 159.65 160.369 159.67 159.902 159.71C159.435 159.763 159.135 159.797 159.002 159.81L159.102 158.97ZM172.358 159.91C172.198 159.363 171.831 158.197 171.258 156.41C170.698 154.61 170.158 152.937 169.638 151.39C169.545 151.097 169.378 150.877 169.138 150.73C168.911 150.583 168.598 150.497 168.198 150.47L168.158 150.41L168.278 149.65C168.425 149.65 168.691 149.657 169.078 149.67C169.465 149.683 169.845 149.69 170.218 149.69C170.618 149.69 171.098 149.67 171.658 149.63C172.218 149.577 172.585 149.543 172.758 149.53L172.818 149.65L172.758 150.37C172.171 150.41 171.785 150.47 171.598 150.55C171.425 150.63 171.338 150.777 171.338 150.99C171.338 151.203 171.605 152.25 172.138 154.13C172.685 156.01 173.058 157.29 173.258 157.97H173.438C173.905 156.85 174.445 155.463 175.058 153.81C175.685 152.157 175.998 151.223 175.998 151.01C175.998 150.797 175.918 150.65 175.758 150.57C175.598 150.477 175.325 150.43 174.938 150.43H174.138L174.098 150.35L174.198 149.59C174.345 149.603 174.658 149.623 175.138 149.65C175.631 149.677 176.105 149.69 176.558 149.69C176.971 149.69 177.351 149.683 177.698 149.67C178.045 149.657 178.278 149.65 178.398 149.65L178.258 150.47C177.938 150.483 177.711 150.543 177.578 150.65C177.458 150.743 177.338 150.943 177.218 151.25L173.838 159.57L172.358 159.91ZM179.766 158.97C180.259 158.917 180.593 158.797 180.766 158.61C180.939 158.423 181.026 158.103 181.026 157.65L181.046 151.31C181.046 150.977 181.006 150.757 180.926 150.65C180.846 150.53 180.686 150.47 180.446 150.47L179.906 150.49L179.866 150.41L179.986 149.65C180.146 149.65 180.459 149.657 180.926 149.67C181.393 149.683 181.899 149.69 182.446 149.69C184.673 149.69 186.319 149.63 187.386 149.51L187.446 149.61C187.419 149.757 187.359 150.09 187.266 150.61C187.173 151.13 187.106 151.69 187.066 152.29L186.106 152.37C186.106 152.317 186.113 152.23 186.126 152.11C186.139 151.977 186.146 151.843 186.146 151.71C186.146 151.363 186.093 151.123 185.986 150.99C185.893 150.843 185.686 150.75 185.366 150.71C185.059 150.657 184.519 150.63 183.746 150.63C183.386 150.63 183.139 150.643 183.006 150.67C182.873 150.683 182.786 150.73 182.746 150.81C182.706 150.877 182.679 151.01 182.666 151.21L182.546 154.05L184.186 154.07C184.426 154.07 184.779 154.05 185.246 154.01C185.713 153.957 186.019 153.923 186.166 153.91L186.246 154.01L186.006 155.05C185.859 155.05 185.566 155.043 185.126 155.03C184.699 155.017 184.246 155.01 183.766 155.01C183.393 155.01 182.973 155.043 182.506 155.11C182.466 156.123 182.446 157.037 182.446 157.85C182.446 158.157 182.466 158.37 182.506 158.49C182.559 158.61 182.666 158.69 182.826 158.73C182.999 158.77 183.279 158.79 183.666 158.79C184.533 158.79 185.153 158.75 185.526 158.67C185.899 158.59 186.159 158.43 186.306 158.19C186.466 157.937 186.593 157.51 186.686 156.91L187.566 156.83L187.646 156.93C187.606 157.077 187.533 157.423 187.426 157.97C187.333 158.503 187.259 159.063 187.206 159.65L187.086 159.75C186.726 159.737 185.979 159.717 184.846 159.69C183.713 159.663 182.793 159.65 182.086 159.65C181.539 159.65 181.033 159.67 180.566 159.71C180.099 159.763 179.799 159.797 179.666 159.81L179.766 158.97ZM190.082 158.97C190.509 158.903 190.796 158.783 190.942 158.61C191.102 158.423 191.182 158.103 191.182 157.65L191.202 151.31C191.202 150.977 191.162 150.757 191.082 150.65C191.002 150.53 190.842 150.47 190.602 150.47L190.062 150.49L190.002 150.41L190.122 149.65C190.189 149.65 190.389 149.657 190.722 149.67C191.056 149.683 191.502 149.69 192.062 149.69C192.356 149.69 192.716 149.67 193.142 149.63C193.582 149.59 193.869 149.563 194.002 149.55L193.922 150.39C193.562 150.43 193.309 150.497 193.162 150.59C193.016 150.67 192.929 150.777 192.902 150.91C192.876 151.043 192.842 151.317 192.802 151.73C192.669 153.517 192.602 155.497 192.602 157.67C192.602 158.003 192.629 158.25 192.682 158.41C192.749 158.557 192.869 158.657 193.042 158.71C193.229 158.763 193.516 158.79 193.902 158.79C194.542 158.79 195.009 158.737 195.302 158.63C195.609 158.523 195.836 158.317 195.982 158.01C196.142 157.69 196.282 157.19 196.402 156.51L197.282 156.41L197.342 156.53C197.316 156.703 197.249 157.103 197.142 157.73C197.049 158.343 196.962 158.99 196.882 159.67L196.782 159.79C196.476 159.777 195.822 159.75 194.822 159.71C193.836 159.67 193.002 159.65 192.322 159.65C191.789 159.65 191.289 159.67 190.822 159.71C190.369 159.763 190.082 159.797 189.962 159.81L190.082 158.97ZM203.01 159.83C202.103 159.83 201.297 159.63 200.59 159.23C199.897 158.83 199.357 158.263 198.97 157.53C198.597 156.797 198.41 155.95 198.41 154.99C198.41 153.95 198.643 153.017 199.11 152.19C199.59 151.35 200.237 150.697 201.05 150.23C201.877 149.75 202.797 149.51 203.81 149.51C204.73 149.51 205.543 149.71 206.25 150.11C206.957 150.51 207.503 151.077 207.89 151.81C208.277 152.53 208.47 153.37 208.47 154.33C208.47 155.37 208.23 156.31 207.75 157.15C207.283 157.977 206.63 158.63 205.79 159.11C204.963 159.59 204.037 159.83 203.01 159.83ZM203.49 158.87C204.463 158.87 205.25 158.523 205.85 157.83C206.45 157.123 206.75 156.19 206.75 155.03C206.75 154.15 206.603 153.377 206.31 152.71C206.03 152.043 205.623 151.53 205.09 151.17C204.57 150.81 203.963 150.63 203.27 150.63C202.323 150.63 201.557 150.977 200.97 151.67C200.397 152.363 200.11 153.29 200.11 154.45C200.11 155.33 200.25 156.103 200.53 156.77C200.81 157.437 201.203 157.957 201.71 158.33C202.23 158.69 202.823 158.87 203.49 158.87ZM210.569 158.95C211.036 158.87 211.342 158.75 211.489 158.59C211.649 158.417 211.729 158.11 211.729 157.67L211.749 151.31C211.749 150.977 211.709 150.757 211.629 150.65C211.549 150.53 211.396 150.47 211.169 150.47L210.609 150.49L210.549 150.41L210.669 149.65C210.736 149.65 210.929 149.657 211.249 149.67C211.582 149.683 212.016 149.69 212.549 149.69C212.909 149.69 213.316 149.683 213.769 149.67C214.222 149.643 214.542 149.63 214.729 149.63C215.929 149.63 216.829 149.883 217.429 150.39C218.042 150.897 218.349 151.59 218.349 152.47C218.349 153.057 218.169 153.617 217.809 154.15C217.449 154.683 216.976 155.117 216.389 155.45C215.816 155.77 215.202 155.93 214.549 155.93H213.169L213.149 157.33C213.149 157.797 213.162 158.137 213.189 158.35C213.229 158.55 213.296 158.683 213.389 158.75C213.482 158.817 213.642 158.85 213.869 158.85C214.042 158.85 214.216 158.843 214.389 158.83C214.562 158.817 214.676 158.81 214.729 158.81L214.769 158.89L214.609 159.69C214.489 159.69 214.269 159.683 213.949 159.67C213.629 159.657 213.302 159.65 212.969 159.65C212.529 159.65 212.002 159.663 211.389 159.69C210.776 159.717 210.462 159.743 210.449 159.77L210.569 158.95ZM214.869 155.07C216.109 154.87 216.729 154.097 216.729 152.75C216.729 152.003 216.496 151.457 216.029 151.11C215.562 150.75 214.822 150.57 213.809 150.57C213.622 150.57 213.509 150.583 213.469 150.61C213.429 150.623 213.402 150.69 213.389 150.81C213.282 152.503 213.222 153.85 213.209 154.85L214.869 155.07ZM220.039 158.97C220.533 158.917 220.866 158.797 221.039 158.61C221.213 158.423 221.299 158.103 221.299 157.65L221.319 151.31C221.319 150.977 221.279 150.757 221.199 150.65C221.119 150.53 220.959 150.47 220.719 150.47L220.179 150.49L220.139 150.41L220.259 149.65C220.419 149.65 220.733 149.657 221.199 149.67C221.666 149.683 222.173 149.69 222.719 149.69C224.946 149.69 226.593 149.63 227.659 149.51L227.719 149.61C227.693 149.757 227.633 150.09 227.539 150.61C227.446 151.13 227.379 151.69 227.339 152.29L226.379 152.37C226.379 152.317 226.386 152.23 226.399 152.11C226.413 151.977 226.419 151.843 226.419 151.71C226.419 151.363 226.366 151.123 226.259 150.99C226.166 150.843 225.959 150.75 225.639 150.71C225.333 150.657 224.793 150.63 224.019 150.63C223.659 150.63 223.413 150.643 223.279 150.67C223.146 150.683 223.059 150.73 223.019 150.81C222.979 150.877 222.953 151.01 222.939 151.21L222.819 154.05L224.459 154.07C224.699 154.07 225.053 154.05 225.519 154.01C225.986 153.957 226.293 153.923 226.439 153.91L226.519 154.01L226.279 155.05C226.133 155.05 225.839 155.043 225.399 155.03C224.973 155.017 224.519 155.01 224.039 155.01C223.666 155.01 223.246 155.043 222.779 155.11C222.739 156.123 222.719 157.037 222.719 157.85C222.719 158.157 222.739 158.37 222.779 158.49C222.833 158.61 222.939 158.69 223.099 158.73C223.273 158.77 223.553 158.79 223.939 158.79C224.806 158.79 225.426 158.75 225.799 158.67C226.173 158.59 226.433 158.43 226.579 158.19C226.739 157.937 226.866 157.51 226.959 156.91L227.839 156.83L227.919 156.93C227.879 157.077 227.806 157.423 227.699 157.97C227.606 158.503 227.533 159.063 227.479 159.65L227.359 159.75C226.999 159.737 226.253 159.717 225.119 159.69C223.986 159.663 223.066 159.65 222.359 159.65C221.813 159.65 221.306 159.67 220.839 159.71C220.373 159.763 220.073 159.797 219.939 159.81L220.039 158.97ZM237.636 159.89C237.342 159.89 237.042 159.763 236.736 159.51C236.429 159.243 236.149 158.883 235.896 158.43L234.216 155.49H232.916L232.876 157.63C232.876 158.017 232.902 158.297 232.956 158.47C233.009 158.63 233.109 158.737 233.256 158.79C233.416 158.843 233.682 158.877 234.056 158.89L234.096 158.95L233.936 159.71C233.776 159.697 233.482 159.683 233.056 159.67C232.642 159.67 232.222 159.67 231.796 159.67C231.382 159.67 231.022 159.677 230.716 159.69C230.409 159.703 230.202 159.717 230.096 159.73L230.236 158.91C230.729 158.843 231.056 158.73 231.216 158.57C231.376 158.41 231.456 158.11 231.456 157.67L231.476 151.29C231.476 150.97 231.436 150.757 231.356 150.65C231.276 150.53 231.122 150.47 230.896 150.47L230.336 150.49L230.276 150.41L230.396 149.65C230.529 149.65 230.782 149.657 231.156 149.67C231.529 149.683 231.902 149.69 232.276 149.69C232.662 149.69 233.076 149.683 233.516 149.67C233.956 149.643 234.256 149.63 234.416 149.63C235.496 149.63 236.342 149.857 236.956 150.31C237.569 150.75 237.876 151.363 237.876 152.15C237.876 152.763 237.669 153.33 237.256 153.85C236.842 154.37 236.262 154.797 235.516 155.13L237.216 157.69C237.536 158.17 237.842 158.51 238.136 158.71C238.429 158.91 238.782 159.01 239.196 159.01L239.276 159.11L239.176 159.73L237.636 159.89ZM234.576 154.61C234.829 154.503 235.049 154.403 235.236 154.31C235.436 154.203 235.656 153.99 235.896 153.67C236.136 153.35 236.256 152.937 236.256 152.43C236.256 151.137 235.302 150.49 233.396 150.49C233.289 150.49 233.216 150.517 233.176 150.57C233.136 150.61 233.116 150.703 233.116 150.85C233.009 152.477 232.956 153.677 232.956 154.45L234.576 154.61Z" fill="black"/>
<defs>
<filter id="filter0_d_8_7" x="0.919998" y="14.608" width="261.811" height="112.32" filterUnits="userSpaceOnUse" color-interpolation-filters="sRGB">
<feFlood flood-opacity="0" result="BackgroundImageFix"/>
<feColorMatrix in="SourceAlpha" type="matrix" values="0 0 0 0 0 0 0 0 0 0 0 0 0 0 0 0 0 0 127 0" result="hardAlpha"/>
<feOffset dy="4"/>
<feGaussianBlur stdDeviation="2"/>
<feComposite in2="hardAlpha" operator="out"/>
<feColorMatrix type="matrix" values="0 0 0 0 0 0 0 0 0 0 0 0 0 0 0 0 0 0 0.25 0"/>
<feBlend mode="normal" in2="BackgroundImageFix" result="effect1_dropShadow_8_7"/>
<feBlend mode="normal" in="SourceGraphic" in2="effect1_dropShadow_8_7" result="shape"/>
</filter>
</defs>
</svg>
